<svg xmlns="http://www.w3.org/2000/svg" viewBox="343.1 219.3 500 400" enable-background="new 343.1 219.3 500 400"><g><path fill="#93928C" d="M842.7 433.1c7.5 90.7-95.7 171.6-231.5 181.8-135.3 10.2-250.5-48.6-258.3-144.7-7.9-96.2 94.4-193.3 229.7-203.5 135.3-10.2 252.1 70.2 260.1 166.4z"/><path fill="#fff" d="M830.8 412c9.3 99.2-93.3 177.8-227.9 189.4-134.6 11.6-250-48.5-259.2-147.7-9.3-99.2 91.3-200.2 225.8-211.7s252.1 70.9 261.3 170z"/><path fill="#EFF3F4" d="M779.2 417.3c3.3 75.4-81.6 131.7-189.2 136.1-107.7 4.4-197.2-44.5-200.5-120-3.3-75.4 80.8-148.6 188.4-153 107.8-4.5 198 61.4 201.3 136.9z"/><path fill="#8E8B80" d="M434 396.4c-1.8-11.5-1.3-18.9 2.4-25.7 4.4-8.1 9.7-15.1 20.2-18.1 8.1-2.4 18-1.4 28.9-1.5 8.9-.1 18.4 1.4 28.7 2.3 9.1.8 19.1-.7 29.1.7 9.4 1.2 19 2 28.7 3.4 9.5 1.4 19.1 2.3 28.7 3.5s19.6 1.4 29.1 2.8c9.7 1.6 18.6 7.5 27.9 9.4 9.8 1.9 19.4 3.4 28.5 5.8 10 2.7 18.6 7 26.8 10.5 10 4.1 18.7 7.5 25.1 13 8.1 6.8 16.5 13.7 17 23.1.5 7.7-2.5 18.2-8.7 27.9-5.2 8.3-14.8 13.3-21.2 20-6.8 7-14.5 12.2-22.2 17.6-7.9 5.6-14.9 12.3-23.6 16.2-8.9 4.1-17.7 8.3-27 11-9.5 2.7-19.1 5.5-28.6 6.8-10 1.5-19.9 3.7-29.3 4-10.2.2-20.2-2.8-29.4-3.7-9.6-.9-18.7-4.3-28-7.3-9.1-2.8-17.9-6.5-26.4-11-8.3-4.5-15.9-10.1-23.4-16.1-7.4-5.9-14.1-12.3-20.4-19.5-6-7-12.2-14.2-17-22.4-4.6-8-10.3-15.9-13.4-24.9-3-8.6-1.1-18.5-2.5-27.8z"/><path fill="#EAE673" d="M413.5 359.5c-.1-12 1.5-19.5 6.5-25.8 5.8-7.3 12.7-13.6 24.1-15 8.8-1 18.7 1.6 29.9 3.1 9.3 1.2 18.7 4.2 29.1 6.6 9.4 2.2 19.7 2.2 29.8 4.9 9.4 2.6 19.2 4.8 29.1 7.6 9.5 2.7 19.3 5 28.9 7.7s19.7 4 29.3 6.5c9.8 2.6 18.3 9.7 27.6 12.3 10 2.8 19.8 4.9 28.9 7.8 10.2 3.3 18.9 8.1 27.3 11.7 10.3 4.4 19.4 7.8 26.1 13.3 8.7 6.9 17.8 14 18.5 23.3.6 8-2.6 18.6-9.4 28.9-4.9 7.4-14.6 11.4-21.2 17.5-6.5 6-14.1 10.3-21.8 15.1-7.6 4.8-14.2 11-22.5 14.7s-16.6 7.7-25.3 10.3c-8.8 2.6-17.7 5.6-26.6 7.2-9.3 1.7-18.4 4.4-27.3 5.1-9.6.7-19.1-2-27.6-2.5-10.1-.6-18.9-3.5-26.7-5.7-9.4-2.6-18.1-5.5-26.4-8.7-9-3.6-17.1-8-24.8-12.3-8.4-4.8-16-9.5-23-15.1-7.5-5.9-14.6-11.6-20.4-18.3-6-7-12.8-13.5-17.3-21.5-4.4-7.8-4.4-17.5-7.2-26.2-2.7-8.4-3.9-16.9-5.2-26-1.3-8.7-2.3-17.3-2.4-26.5z"/><path fill="#B2B1A4" d="M417.4 382.6c-1.1-8.7-.9-14.3 1.7-19.8 3.2-6.6 6.3-13 13.9-15.7 6.2-2.2 14-1.1 22.5-1.4 6.9-.2 14.1 1.1 22.2 1.9 7.1.7 14.8-1 22.5.1 7.1 1.1 14.7 1.8 22.3 3.2 7.2 1.4 14.7 2.3 22.2 3.7 7.2 1.5 14.9 1.6 22.3 3.1s13.8 7.5 21 8.9c7.4 1.4 14.8 1.9 22.3 3.1s14.6 3.7 21.9 4.8c7.5 1 15.2.7 22.4 1.6 7.6 1 15.7-1.9 22.8-.8 7.7 1.1 15.3 2.4 22.2 3.7 7.9 1.5 14.1 7.7 20.6 9.7 8.2 2.4 13.9 6 19.2 9.4 7 4.5 12.6 7.8 13.3 15 .6 5.8-.2 12.8-4.7 20.8-3.4 6.1-7 12.5-11.7 18.1-4.5 5.3-8.7 11.8-14.2 16.6-5.3 4.7-13.2 6.9-19.3 10.9-5.9 4-13 6.1-19.7 9.4-6.4 3.3-12.9 6.2-19.8 8.9-6.8 2.6-13.8 4.3-20.9 6.2-7.1 1.9-14 3.6-21.2 4.8-7.2 1.1-14.3 2.8-21.6 3.3-7.4.5-14.8 2.3-22.1 1.8-7.4-.5-14.1-5.1-21.2-6.5-7-1.4-13.3-3.6-19.8-5.5-6.9-1.9-15.5 1.9-21.8-.3-6.6-2.5-11.1-9.2-17.2-12.2-6.4-3.2-12.8-5.6-18.4-9.2-5.9-3.7-12.6-6.5-17.7-10.8-5.3-4.4-9.3-10.2-13.8-15.1-4.6-5.1-8.3-10.7-12.1-16.1-3.8-5.7-5.9-11.9-8.7-18-2.8-6.1-9.4-11-11.1-17.4-1.6-6.1 2.5-13.6 1.7-20.2z"/><path fill="#3F9952" d="M467 427.5c5.1 2.4 3.7 5.2 8.8 7.7 5.1 2.4 6.5-.2 11.6 2.2s5.5 1.8 10.6 4.2 4.2 4.3 9.3 6.7c3.6 1.7 3.2 4.5 4.4 8 1.2 3.4 8.4 8 6.8 11.4-3 5.8-3.4 5.6-6.4 11.4-1.8 3.4-8.8 3.1-12.3 4.2-3.4 1.1-8.8 5.1-12.2 3.5-5.1-2.4-1.1-10.2-6.3-12.6-5.1-2.4-9.4 5.8-14.5 3.3-5.1-2.4-4.2-4.3-9.3-6.7s-3.8-5-8.9-7.4c-3.6-1.7-5.6-4.1-6.8-7.4-1.2-3.3-.6-6.2 1.2-9.7 3-5.8 2.6-6 5.6-11.8 1.8-3.4 3.3-8 6.9-9.1s8.1.5 11.5 2.1z"/><path fill="#D85656" d="M637.8 475.5c.6 3.6 3.2 7.8 2 11.2-1.2 3.3-2.1 8.2-4.6 11.1-2.3 2.7-5.5 6.6-8.8 8.6-3 1.9-7.4 4.2-11 5.5-3.4 1.2-8.1 2.5-12 3.1-3.9.6-8.5-.8-12.2-1-3.9-.2-7.9-2.3-11.5-3.3-3.8-1-6.8-4.2-9.7-6.1-3.3-2-6.3-4.3-8.4-7.2-2.3-3-1.4-6.7-2-10.3s1.2-5.8 2.4-9.3c1.2-3.3-1.8-8.5.8-11.5 2.3-2.7 5.3-5.6 8.5-7.7 3-1.9 7-3.1 10.7-4.4 3.4-1.2 6.5-6.7 10.4-7.3s8.3 8.4 12 8.6c3.9.2 6.5 1.6 10 2.6 3.8 1 11.3-5.8 14.3-4 3.3 2 7.8 5.5 10 8.3 2 3-1.5 9.5-.9 13.1z"/><path fill="#3F9952" d="M676.1 419.4c5.1 2.4 3.7 5.2 8.8 7.7 5.1 2.4 6.5-.2 11.6 2.2 5.1 2.4 5.5 1.8 10.6 4.2 5.1 2.4 4.2 4.3 9.3 6.7 3.6 1.7 3.2 4.5 4.4 8 1.2 3.3 8.4 8 6.8 11.4-3 5.8-3.4 5.6-6.4 11.4-1.8 3.4-8.8 3.1-12.3 4.2-3.4 1.1-8.8 5.1-12.2 3.5-5.1-2.4-1.1-10.2-6.3-12.6-5.1-2.4-9.4 5.8-14.5 3.3-5.1-2.4-4.2-4.3-9.3-6.7s-3.8-5-8.9-7.4c-3.6-1.7-5.6-4.1-6.8-7.4-1.2-3.3-.6-6.2 1.2-9.7 3-5.8 2.6-6 5.6-11.8 1.8-3.4 3.3-8 6.9-9.1 3.4-1.2 7.9.5 11.5 2.1z"/><path fill="#EAE673" d="M411.6 355.2c-.4-8-.1-13.3 2.4-18.4 3.1-6.4 5.2-12.7 12-15.5 5.7-2.3 13-1.2 20.9-1.5 6.4-.2 12.9 1.4 20.5 2.3 6.5.8 13.8-.8 21 .6 6.5 1.2 13.5 2.3 20.5 4 6.5 1.6 13.5 2.8 20.4 4.7 6.6 1.7 13.8 2.3 20.5 4.1 6.6 1.8 12 8.3 18.6 10.2 6.6 1.8 13.6 3 20.3 4.8s12.8 5.1 19.6 6.8c6.6 1.7 13.8 1.9 20.4 3.5 6.8 1.6 14.5-.8 21.1.8 6.8 1.7 13.5 3.3 20 4.9 6.9 1.7 12.2 8.1 18.6 9.9 7 1.9 13.2 4.9 19.3 6.9 7 2.3 14.3 2 20.2 4.4 7.2 3 14 5.2 18.7 8.6 6.8 4.8 12 10.5 12.5 16.4.5 5.3-1.1 13.5-7.1 20-4.5 4.9-11.6 8-16.7 12.8-4.9 4.7-11.1 8.1-16.6 12.5-5.2 4.3-10.6 8.6-16.2 12.6s-11.6 7.3-17.7 10.7c-5.9 3.4-12 6.8-18.4 9.7-6.3 2.8-12.3 6.2-19.1 8.4-6.6 2.2-12.9 5.8-19.8 7.2-6.8 1.4-14.2-1.5-21.3-.9-6.9.6-13.5-.2-20.8-.6-6.9-.3-14.6 5.5-21.7 4.3-6.8-1-12.7-6.9-19.7-8.9-7.4-2-14.6-3.2-21.2-5.5-7.1-2.5-14.7-3.5-21.1-6.5-6.9-3.1-12.7-7.8-18.7-11.4-6.5-3.7-12.1-8.2-17.8-12.5-5.9-4.5-10.3-10.1-15.2-15.1-5.1-5.2-13.3-8-17.4-13.6-4.3-5.8-7.5-12.5-10.7-18.9-3.2-6.4-1.9-14.3-4.2-21.1-2.1-6.6-5.7-12.8-6.9-19.9-1-6.5 1.2-13.6.8-20.8z"/></g><path fill="#CEB225" d="M511.8 361.8l-6.3.7-6.8 2.1-6.4-3-6.8 1.1-6.5-1.3-6.3-1.9-.2-2.6 6.6-.3 6.6 1.6 6.8-3.4 6.3 5.4 6.9-3.5 8.1-.8zM646.3 465.6l-6.3.7-6.8 2-6.4-3-6.7 1-6.6-1.3-6.2-2-.2-2.7 6.6-.2 6.6 1.7 6.8-3.3 6.3 5.5 6.9-3.5 8.1-.7zM574 393.5l-5.1-3.4-5.9-3-3.7-5.4-5.5-3.5-4.5-4.5-4.1-4.8 2.2-2.1 5.1 3.8 4.4 4.7 6.4 2.4 2.7 6.6 6.5 2.3 6.2 4.3zM578.8 469.2l-6 .2-6.6 1.5-5.8-3.6-6.4.5-6.1-1.8-6-2.6-6.3-.5-6.6-.4 1.1-3.2 6.5-2.7 5.4 6 6.8-2.9 6.5-.6 5.4 5.8 5.8 3.6 6.9-3.3 6.3 1.4zM481.6 390.4l-5 .2-5.2.8-5.1-1.6-5.2.3-5.1-.8-5-1v-3.1l5.1.1 5.1.9 5.3-1.4 5 2.8 5.3-1.5 6.1-.1zM634.4 390.8l-4.8.9-5 1.7-5.2-.8-5.1 1.2h-5.1l-5-.2-.7-3.1 5-.7 5.2.1 4.9-2.3 5.3 1.9 5-2.3 5.9-1zM504.9 437l-4.5-1.9-5.1-1.4-4-3.3-4.8-1.8-4.4-2.7-4.1-2.9 1.6-2.7 4.7 2.1 4.3 2.8 5.3.9 3.5 4.4 5.3.8 5.5 2.4zM694.2 420.4l-5-.2-5.3.4-4.9-1.9-5.2-.1-5.1-1.1-4.9-1.4.3-3 5.1.4 5.1 1.3 5.3-1.1 4.8 3.1 5.4-1 6.1.3zM645.7 437.9l-6-.6-6.6.5-5.5-3.7-6.3-.4-5.9-2.3-5.8-2.8-6.1-1.2-6.3-1-5.6-2.4v-5.4l6.3 5.7 6.9-1.7 6.4.4 5 5.4 5.5 3.7 7-1.9 6 1.9 6.7-.9 5.5 4zM558.7 425.5l-5.7-2-6.7-1.2-4.5-5.2-6.2-1.9-5.2-3.8-4.9-4.4-5.8-2.7-5.9-2.6-4.9-3.9 1.6-5.5 4.6 7.6h7.4l6.3 1.9 3.4 6.9 4.4 5.3 7.5-.3 5.5 3.4 6.9.7 4.4 5.6z"/></svg>