<svg xmlns="http://www.w3.org/2000/svg" viewBox="300 212.9 500 400" enable-background="new 300 212.9 500 400"><g><path fill="#897D7D" d="M793.4 331.2c7.1 20.9 8.7 44.4 3.6 67-4.7 20.3-8.4 45.8-21.7 65.4-11.8 17.3-32.4 31.5-50.1 46.9-16 13.9-32.3 32.3-52.5 43.5-18.7 10.5-45.6 6-67.4 13.4-22.1 7.5-45.6-2.8-67.4.3-23.3 3.3-44.3 45.6-66.2 44.2-23.8-1.3-40.4-41.8-60.9-48.2-23.2-7.2-46.4-4.8-63-17.8-18.9-14.7-35.2-29.7-42.4-50.8s4.6-40.7 10.6-63.6c5.3-20.3-12.9-55.7 1.2-75.4 12.4-17.2 41.4-25.7 59.6-41 16.5-14 36.8-25.8 57.3-37.1 19.2-10.7 44-8.9 66-16.3 21.8-7.4 38.9-33.9 60.3-37 23-3.3 46.3 24.9 67.6 26.2 23.5 1.4 51.3-25.2 71.4-18.6 22.6 7.4 38.4 31.8 54.6 45 17.8 14.8 32.3 33 39.4 53.9z"/><path fill="#F2F1ED" d="M790.1 323.3c7.1 20.9 8.7 44.4 3.6 67-4.7 20.3-8.4 45.8-21.7 65.4-11.8 17.3-32.4 31.5-50.1 46.9-16 13.9-32.3 32.3-52.5 43.5-18.7 10.5-45.6 6-67.4 13.4-22.1 7.5-45.6-2.8-67.4.3-23.3 3.3-44.3 45.6-66.2 44.2-23.8-1.3-40.4-41.8-60.9-48.2-23.2-7.2-46.4-4.8-63-17.8-18.9-14.7-35.2-29.7-42.4-50.8-7.2-21.1 4.6-40.7 10.6-63.6 5.3-20.3-12.9-55.7 1.2-75.4 12.4-17.2 41.4-25.7 59.6-41 16.5-14 36.8-25.8 57.3-37.1 19.2-10.7 44-8.9 66-16.3 21.8-7.4 38.9-33.9 60.3-37 23-3.3 46.3 24.9 67.6 26.2 23.5 1.4 51.3-25.2 71.4-18.6 22.6 7.4 38.4 31.8 54.6 45 17.8 14.8 32.3 33 39.4 53.9z"/><path fill="#A0997D" d="M466 340.6s-4.5 25 16.8 42.1S495.7 410 516 433c20.3 23 12.6 19.7 25.9 28.9 13.3 9.2 1.4 17.7 17.9 41.1 16.4 23.4 13.5 34.4 21.1 43.9 7.7 9.5-27.6 26.9-11.2 34.9 16.3 8 107.4 20.3 128.2-11.1 20.4-30.6 39.6-54 58.3-70.1 18.9-16.1-58-6.9-73.5-4.5-15.5 2.3-32.7-8.9-37.2-14.9-4.6-6-4.9 15.5-21.6 4.3-16.7-11.2-87.9-101.7-90.6-107.3-2.7-5.7-24.7-30-39.4-36.7s-21-7.9-27.9-.9z"/><path fill="#EAE3C3" d="M609.5 332c4.7 12.6 8.4 26.6 6.2 39.7-2.1 12.6-7.8 26.2-15.4 37.5-7 10.6-19.4 17.7-30.3 26-10.1 7.6-20.7 15.9-33.6 20.7s-26.4 5.2-39.1 6c-13.7.8-26.8 0-39-3.4-13.2-3.7-25.3-9.2-35.1-17.3-10.2-8.4-21-18.1-25.7-30.6-4.7-12.6-6-27.4-3.8-40.5 2.1-12.6 8.2-25.8 15.8-37.1 7-10.6 18.2-19 29-27.2 10.1-7.6 22.9-11 35.7-15.7 12.9-4.8 24.7-12.6 37.3-13.4 13.7-.8 27.8.4 40 3.9 13.2 3.7 22.8 14.1 32.7 22.2 10.4 8.2 20.7 16.6 25.3 29.2z"/><path fill="#F4EED0" d="M609.5 329.4c4.6 12.4 8.2 26.2 5.9 38.9-2.2 12.2-7.9 25.5-15.6 36.5-7 10.1-19.3 16.9-30.1 25-9.9 7.3-20.4 15.4-33.1 20.1-12.7 4.7-26.1 5.2-38.6 6.2-13.6 1-26.5.3-38.6-2.7-13.2-3.3-25.3-8.5-35.1-16.2-10.3-8.1-21.1-17.6-25.8-29.9-4.7-12.4-5.7-27.1-3.2-40 2.3-12.3 8.7-25.2 16.5-36.3 7.1-10.1 18.3-18.3 29.1-26.4 10-7.4 22.7-10.7 35.4-15.3 12.7-4.7 24.2-12.5 36.6-13.4 13.5-.9 27.3.1 39.3 3.3 13.1 3.4 22.6 13.7 32.3 21.5 10.3 8.1 20.4 16.3 25 28.7z"/><path fill="#E2CE3B" d="M465.3 337.2s1.2 16.9 17.5 42.1c14.8 22.8 14.6 20.2 35.2 43.1 20.6 22.9 6.9 23.5 20.3 32.6 13.4 9 6.4 20.8 23.1 44 16.7 23.2 14 34.4 21.8 43.8 7.8 9.4-30 21.2-16.8 33.7 12.1 11.4 109 23.4 127.1-9.4 19.7-35.6 40.4-48.7 58.8-65.4 18.4-16.7-53.5-15.2-68.8-12.5s-41.1-16.3-57.9-27.3c-16.8-11-89.8-82.6-92.6-88.2-2.8-5.6-22.9-21.6-37.7-28.1-15-6.3-23.3-15.6-30-8.4z"/></g></svg>