<svg xmlns="http://www.w3.org/2000/svg" viewBox="294.7 218.5 500 400" enable-background="new 294.7 218.5 500 400"><g><path fill="#7C7A74" d="M793.4 368.5c3.6 21.3-.2 46-10.3 70.6-8.4 20.5-19 43.5-35 63.3-14.5 18-33.8 34-53 49.2-18.6 14.7-38.3 29.9-60 40.3-21.6 10.3-46.6 12.2-70.2 16.4-21.8 3.8-42.9-.9-64-1.3-22.3-.4-46 13.3-66.3 8.6-22.1-5.1-37.6-26.6-55.8-35.9-20.4-10.7-39.8-18.9-53.2-34.1-15-16.9-26.1-35.1-29.6-56.2-4.2-25.4 3.9-49.3 14.4-73.8 9.6-22.3 14.8-51.4 35.1-70.1 17.9-16.4 44.2-26.4 69.3-37.7 22.1-10 47.4-17.1 74.4-21.8 22-3.9 45.2-1.8 67.9-3.3 23-1.4 46-10.3 68.1-9 23.8 1.5 44.7 16.1 65.5 21.1 24.4 5.9 50.7 3 67.5 14.3 20.7 13.9 31.5 36.8 35.2 59.4z"/><path fill="#847B52" d="M789 362.3c3.7 21.2.3 45.9-9.3 70.4-8.1 20.5-17.2 44.4-32.6 64.3-14.1 18.1-34.1 33.6-52.8 48.9-18.2 14.8-37.3 31.3-58.6 41.7-21.3 10.4-47.1 9.9-70.4 14-21.6 3.9-42.3-3.8-63-4.1-22.1-.4-46.5 21.1-66.5 16.4-21.8-5.1-34.7-33.2-52.6-42.7-20.1-10.7-40.2-16.6-53.4-31.7-14.6-16.7-26.2-34.4-29.7-55.2-4.2-25.1 5.7-48.1 15.7-72.4 9.2-22.4 9-55.1 28.7-73.8 17.5-16.5 45.8-24.8 70.5-36.2 21.8-10.2 47.1-17.1 73.9-21.8 21.7-3.9 44.9.3 67.3-1.1 22.7-1.5 45.5-14.5 67.3-13.2 23.5 1.4 43.2 21.6 63.7 26.6 24 5.9 52.5-2.5 69.1 9 19.7 13.4 28.8 38.4 32.7 60.9z"/><path fill="#F4F0EA" d="M788.2 360.6c3.6 21.1-.1 45.6-10 70-8.3 20.3-18.7 43.1-34.5 62.8-14.3 17.9-33.4 33.7-52.3 48.9-18.4 14.6-37.8 29.8-59.3 40.1-21.4 10.3-46.1 12.3-69.4 16.5-21.6 3.9-42.6-.7-63.3-1-22.1-.3-45.4 13.4-65.5 8.9-21.9-4.9-37.4-26.1-55.5-35.2-20.3-10.4-39.5-18.5-52.9-33.4-14.9-16.6-26.1-34.7-29.6-55.5-4.2-25.1 3.8-48.8 14-73.1 9.4-22.1 14.5-50.9 34.6-69.5 17.6-16.2 43.7-26.3 68.5-37.6 21.8-10 46.9-17.1 73.7-21.9 21.8-3.9 44.8-2 67.3-3.6 22.8-1.5 45.5-10.5 67.4-9.3 23.6 1.3 44.4 15.7 64.9 20.5 24.2 5.7 50.3 2.6 67 13.7 20.2 13.8 31 36.3 34.9 58.7z"/><path fill="#B5AF9E" d="M551.4 402.6c3 10.4 2 21.3-1.4 31.7-3.1 9.6-9.4 18.3-16.9 26.7-6.7 7.5-13.5 16.4-23.1 22.1-8.8 5.2-20.2 5.1-30.9 8.2-10.7 3.1-20.2 12.3-30.5 12.6-11.2.3-21.4-7.7-31.1-10.6-10.9-3.2-22.5-4.3-30.2-10.9-8.3-7-13-17.6-16-27.9-3-10.4-6.7-22.5-3.4-32.9 3.1-9.6 9.2-20.7 16.7-29.1 6.7-7.5 21.3-6.7 30.9-12.4 8.8-5.2 16-13.5 26.7-16.6 10.7-3.1 21.2 0 31.4-.2 11.2-.3 20.6-.4 30.3 2.4 10.9 3.2 24.5.8 32.2 7.3 8.5 7.1 12.4 19.4 15.3 29.6z"/><path fill="#E8E580" d="M547.6 399.7c3 10.4 2 21.3-1.4 31.7-3.1 9.6-9.4 18.3-16.9 26.7-6.7 7.5-13.5 16.4-23.1 22.1-8.8 5.2-20.2 5.1-30.9 8.2-10.7 3.1-20.2 12.3-30.5 12.6-11.2.3-21.4-7.7-31.1-10.6-10.9-3.2-22.5-4.3-30.2-10.9-8.3-7-13-17.6-16-27.9-3-10.4-6.7-22.5-3.4-32.9 3.1-9.6 9.2-20.7 16.7-29.1 6.7-7.5 21.3-6.7 30.9-12.4 8.8-5.2 16-13.5 26.7-16.6 10.7-3.1 21.2 0 31.4-.2 11.2-.3 20.6-.4 30.3 2.4 10.9 3.2 24.5.8 32.2 7.3 8.4 7.1 12.3 19.2 15.3 29.6z"/></g></svg>