<svg xmlns="http://www.w3.org/2000/svg" viewBox="151.8 45.2 500 400" enable-background="new 151.8 45.2 500 400"><path fill="#7B8587" d="M411.4 145.3c31.2 2.6 60.5 7.8 86.5 16.2 31.8 10.3 59.2 37.7 79.1 54.6 27.2 23 40.3 37.4 36.1 67.4-3.2 23-14.8 47.5-37.1 65.5-17.3 14-41.9 20.7-66.9 29.8-21.5 7.8-44.3 18.2-69.3 21.3-22.7 2.8-48.4 5.4-72.5 3.4-30.9-2.6-58.7-13.6-84.1-21.4-31.6-9.7-55.7-25.4-75.2-41.7-26.4-22-43.1-45.7-38.9-75.8 3.2-22.9 17.4-44.6 38.7-63.2 16.7-14.6 36.9-30.6 61.4-40.4 21.1-8.4 45.8-11.4 70.6-14.8 23-3.3 47-2.9 71.6-.9z"/><path fill="#938E74" d="M589.6 409.1c-8.1 5.7-15.8 9.7-23.6 13.6-8.8 4.4-14.5 16.5-23 18.6-9.2 2.3-19.4-1-28.2-1.2-9.2-.2-19.7 2.9-28.4 0-8.5-2.9-17.3-8.9-25.1-14.2-7.4-5-7.9-20.1-14.9-27-6.4-6.3-20.1-4.7-25-11.5-5.5-7.4-3.6-19.4-7.1-27.2-3.8-8.5-8-15.8-8.9-24.4-.9-9-1.5-17.7 1.2-26.5 2.5-8 10.8-11.8 16.7-19.4 5-6.3 6-17.4 13.5-23.1 6.7-5.1 14.5-9.1 22.5-13.2 7.6-3.9 17.4-.7 25.7-3.5 8-2.7 14.8-9.6 23.2-11.2 8.3-1.7 16.2-10.6 24.7-11.1 8.6-.6 17.1 11.8 25.5 12.4 8.7.6 19.1-11.7 27.1-9.7 8.6 2.1 14.8 13.2 22.3 16.9 8.1 3.9 17.9 4.7 24.2 10.5 7.9 7.2 15 16 18.6 24.9 3.8 9.4-4.2 20.8-4.6 31.1-.5 9.7 1.6 19.3-2.1 29.2-3.4 9.1-5.9 19.1-11.5 27.7-5.3 8.1-9.2 18.5-16.2 25.8-6.7 6.5-18.6 6.9-26.6 12.5z"/><path fill="#E8EDEF" d="M400 137.2c31.1 4.1 60.1 10.8 85.7 20.5 31.3 11.9 58.1 26.7 77.2 44.6 26 24.3 38 53.4 32.5 83.1-4.2 22.7-16.9 46.8-39.9 63.6-17.8 13-42.7 18.5-68.1 26.3-21.8 6.7-45.1 15.9-70.1 17.7-23.2 1.7-48.1 2.9-72.6-.4-30.7-4.1-58.1-16.5-83-25.6-31.1-11.3-54.6-28.2-73.3-45.5-25.4-23.3-40.9-47.9-35.5-77.8 4.2-22.6 19.3-43.6 41.4-61.1 17.4-13.7 38.2-28.7 63.1-37.2 21.4-7.3 46.2-9 71.3-11.2 22.9-1.8 46.9-.3 71.3 3z"/><path fill="#F2DE6B" d="M588.5 404.3c-8.1 5.7-15.8 9.7-23.6 13.6-8.8 4.4-14.5 16.5-23 18.6-9.2 2.3-19.4-1-28.2-1.2-9.2-.2-19.7 2.9-28.4 0-8.5-2.9-17.3-8.9-25.1-14.2-7.4-5-7.9-20.1-14.9-27-6.4-6.3-20.1-4.7-25-11.5-5.5-7.4-3.6-19.4-7.1-27.2-3.8-8.5-8-15.8-8.9-24.4-.9-9-1.5-17.7 1.2-26.5 2.5-8 10.8-11.8 16.7-19.4 5-6.3 6-17.4 13.5-23.1 6.7-5.1 14.5-9.1 22.5-13.2 7.6-3.9 17.4-.7 25.7-3.5 8-2.7 14.8-9.6 23.2-11.2 8.3-1.7 16.2-10.6 24.7-11.1 8.6-.6 17.1 11.8 25.5 12.4 8.7.6 19.1-11.7 27.1-9.7 8.6 2.1 14.8 13.2 22.3 16.9 8.1 3.9 17.9 4.7 24.2 10.5 7.9 7.2 15 16 18.6 24.9 3.8 9.4-4.2 20.8-4.6 31.1-.5 9.7 1.6 19.3-2.1 29.2-3.4 9.1-5.9 19.1-11.5 27.7-5.3 8.1-9.2 18.5-16.2 25.8-6.8 6.4-18.6 6.9-26.6 12.5z"/><path fill="#FCFCFC" d="M387 120c31.9 2.9 61.8 8.3 88.5 17.7 32 11.4 60.2 25.5 80.6 43.4 27.7 24.4 40.5 54.2 37.3 84-3.2 29.5-18.9 62.1-51 81-23.7 13.9-57.6 12.6-91.3 18.1-28.4 4.5-59.2 15.2-91.4 12.2-31.2-2.9-62.8-4.6-89.9-12-32.6-8.9-57.6-31.8-79.4-46.6-30.7-20.8-40.8-43.6-37.5-74 2.4-22.9 6.9-47.2 28.4-66.5 16.7-15 38.7-27.7 63.3-38 21.3-8.9 44.1-22.9 69.2-26.6 23.3-3.6 48.5 4.9 73.2 7.3z"/><path fill="#EAEAEA" d="M582.6 255.2c-2.7 28.1-23.3 42.4-54.8 48.5-22.1 4.3-49 6.7-77.9 2.4-28.5-4.3-54.2-13.6-74-24.6-28.6-15.9-45.9-39.1-38.1-65.9 7.3-25.3 27.5-49.5 54.9-63.3 21.6-10.9 49-12.3 79.8-7.7 30.7 4.5 57.8 14.2 76.9 31.6 24.7 22.3 35.8 52.4 33.2 79z"/><path fill="#F7F7F7" d="M580.6 237.1c-3.4 14-9.8 23.7-20.1 32.5-9.1 7.9-18.3 19.3-32 23.3-11.3 3.3-24.8 2.4-38.8 3.2-12 .7-25.1 4-38.8 2.9-13.6-1-27.1-4-39.5-6.8-13.8-3.2-24.1-15-35.2-20.2-13.8-6.4-28.9-7.8-36.4-17-9.4-11.3-8.8-25.9-5.3-40.7 3.3-13.6 8.6-26.5 18.6-37.9 8.8-10.1 19.3-19.4 32.5-26.4 11.6-6.1 25.3-6.6 39.7-9.2 12.7-2.3 25.8-8.1 40.4-7.1 14.4 1.1 28.4 4.7 41.3 9.2 14 5 24.5 15.6 35.4 23.6 12.7 9.2 24.5 17 31.3 28.6 8.4 14.1 10.4 27.8 6.9 42z"/><path fill="#969386" d="M553.8 325.6c.9 5 1.2 9.1 1.8 12.5l38.2-38.2c-1-.7-2-1.6-3.2-2.6-9.6-9.5-10.4-8.5-20-18s-8.9-10.2-18.5-19.7-7.7-11.9-19.4-17.9c-4.7-2.4-10.3-3-10 2.7.6 14.7 3.2 15 8.7 28.4 5.4 13.5 11.7 10.5 17.1 23.9 5.6 13.4 2.8 14.5 5.3 28.9z"/><path fill="#F2DE6B" d="M568.5 346.7c13 3.4 9.1-10.5 19.6-19.4 10.5-9 21.2-1.9 21.9-16.3.7-13.7-9.6-8.8-19.1-17.9-9.6-9.1-10.4-8.3-19.8-17.4-9.6-9.1-8.9-10-18.5-19.1-9.6-9.1-7.7-11.5-19.3-17.3-4.7-2.3-10.1-2.9-9.8 2.7.7 14.3 3.3 14.6 8.9 27.7 5.5 13.1 11.6 10.1 17.3 23.2 5.5 13.1 2.7 14.2 5.4 28.3 2.6 15.2.5 22.1 13.4 25.5z"/></svg>