<svg xmlns="http://www.w3.org/2000/svg" viewBox="123.7 101.4 500 400" enable-background="new 123.7 101.4 500 400"><path fill="#93928C" d="M623.3 316.5c7.5 90.6-96.4 171.4-233.1 181.6C254 508.3 138 449.5 130.1 353.5s95.1-192.9 231.3-203.1c136.3-10.3 253.9 70 261.9 166.1z"/><path fill="#fff" d="M611.6 294.9c9.3 99.1-93.3 177.6-227.8 189-134.6 11.3-250.2-48.5-259.5-147.6S215.5 136.4 350.1 125s252.2 70.9 261.5 169.9z"/><path fill="#EFF3F4" d="M565.4 302.9c3.3 75.4-82.2 131.5-190.5 136-108.4 4.4-198.7-44.5-202-119.8s81.3-148.4 189.7-152.9 199.3 61.4 202.8 136.7z"/><path fill="#A09F97" d="M527.9 339.5c-1.7 5.4 9.2 16.1 5.9 20.9-3.2 4.5-16.8 1.2-21.2 5.1-4.1 3.7-5.4 10.3-10.6 13.3-4.8 2.9-9.8 5.7-15.3 8-5.2 2.1-11.4 1.6-17.3 3.2-5.4 1.6-11.3.3-17.3 1.3-5.7 1-10.3 8.7-16.2 9.1-5.7.4-11.8-2.3-17.8-2.2-5.7.1-12 7-18 6.6-5.8-.3-11.8-2.5-17.7-3.2-5.8-.7-10.8-6.3-16.7-7.4-5.7-1-10.3-6-16.1-7.5-5.7-1.5-14.8 8.2-20.3 6.4-5.6-1.8-8.2-11.3-13.5-13.3-5.5-2.2-8.9-7.5-14-9.9-5.2-2.5-11.5-2.6-16.4-5.4-5-2.9-8.7-7.3-13.2-10.4-4.8-3.2-16.5 1.8-20.8-1.8-4.5-3.7-6.8-10.3-10.5-14.1-4.1-4.2-.8-13.7-4.1-18-3.4-4.6-7.9-7.9-10.3-12.7-2.6-5.1-14.6-7.3-15.9-12.5-1.4-5.4 4.6-12.7 4.6-18.1s-.6-11.4 1.1-16.9 4.3-11.1 7.5-15.7c3.2-4.5 6.8-9.8 11.1-13.7 4.1-3.7 9.5-7.1 14.6-10.1 4.8-2.9 11.3-3.5 17-5.8 5.2-2.1 10-6.6 15.8-8.3 5.4-1.6 10.8-6.3 16.8-7.3 5.7-1 13 7.8 19 7.3 5.7-.4 11.3 2.5 17.3 2.5 5.7-.1 11.2-.7 17.2-.3 5.8.3 11.2.1 17.2.9 5.8.7 10.5 4.7 16.4 5.9 5.7 1 13.9-8.5 19.7-7 5.7 1.5 10.8 4.6 16.3 6.3 5.6 1.8 9.8 6.4 15.2 8.5 5.5 2.2 15.2-4.4 20.2-2 5.2 2.5 8.9 8.8 13.7 11.5 5 2.9 4.6 13.6 9.2 16.7 4.8 3.2 10.1 5.1 14.5 8.5 4.5 3.7 15.6.9 19.4 4.8 4.1 4.2 4 12 7.1 16.3 3.4 4.6 7 9.3 9.4 14.1 2.6 5.1 8.2 9.7 9.6 14.9 1.4 5.4.4 12 .4 17.5-.1 5.3-11.4 8.7-13 14z"/><path fill="#EAE673" d="M524.1 333.2c-1.7 5.4 9.2 16.1 5.9 20.9-3.2 4.5-16.8 1.2-21.2 5.1-4.1 3.7-5.4 10.3-10.6 13.3-4.8 2.9-9.8 5.7-15.3 8-5.2 2.1-11.4 1.6-17.3 3.2-5.4 1.6-11.3.3-17.3 1.3-5.7 1-10.3 8.7-16.2 9.1-5.7.4-11.8-2.3-17.8-2.2-5.7.1-12 7-18 6.6-5.8-.3-11.8-2.5-17.7-3.2-5.8-.7-10.8-6.3-16.7-7.4-5.7-1-10.3-6-16.1-7.5-5.7-1.5-14.8 8.2-20.3 6.4-5.6-1.8-8.2-11.3-13.5-13.3-5.5-2.2-8.9-7.5-14-9.9-5.2-2.5-11.5-2.6-16.4-5.4-5-2.9-8.7-7.3-13.2-10.4-4.8-3.2-16.5 1.8-20.8-1.8-4.5-3.7-6.8-10.3-10.5-14.1-4.1-4.2-.8-13.7-4.1-18-3.4-4.6-7.9-7.9-10.3-12.7-2.6-5.1-14.6-7.3-15.9-12.5-1.4-5.4 4.6-12.7 4.6-18.1 0-5.5-.6-11.4 1.1-16.9 1.7-5.4 4.3-11.1 7.5-15.7 3.2-4.5 6.8-9.8 11.1-13.7 4.1-3.7 9.5-7.1 14.6-10.1 4.8-2.9 11.3-3.5 17-5.8 5.2-2.1 10-6.6 15.8-8.3 5.4-1.6 10.8-6.3 16.8-7.3 5.7-1 13 7.8 19 7.3 5.7-.4 11.3 2.5 17.3 2.5 5.7-.1 11.2-.7 17.2-.3 5.8.3 11.2.1 17.2.9 5.8.7 10.5 4.7 16.4 5.9 5.7 1 13.9-8.5 19.7-7 5.7 1.5 10.8 4.6 16.3 6.3 5.6 1.8 9.8 6.4 15.2 8.5 5.5 2.2 15.2-4.4 20.2-2 5.2 2.5 8.9 8.8 13.7 11.5 5 2.9 4.6 13.6 9.2 16.7 4.8 3.2 10.1 5.1 14.5 8.5 4.5 3.7 15.6.9 19.4 4.8 4.1 4.2 4 12 7.1 16.3 3.4 4.6 7 9.3 9.4 14.1 2.6 5.1 8.2 9.7 9.6 14.9 1.4 5.4.4 12 .4 17.5-.1 5.3-11.3 8.6-13 14z"/><path fill="#CEB225" d="M305.4 247.1l-5.9 2.4-6 3.8-7-1.1-6.2 2.8-6.7.6-6.5-.1-.9-2.9 6.2-2 6.8-.3 5.7-5.1 7.6 3.6 5.6-5.3 7.8-2.9zM475.3 335.6l-5.9 2.3-6 3.8-7.1-1.3-6.2 2.8-6.7.5-6.5-.2-.9-2.8 6.3-2 6.8-.2 5.7-5 7.5 3.6 5.8-5.2 7.8-2.8zM360.5 251.8l-5.1-1.8-5.9-1-4-4.4-5.5-1.7-4.7-3.2-4.5-3.6-5.1-2.3 1.8-3.6 4.8 3.5 6.3.1 3.2 6 6.4.1 5.5 1.6 3.3 5.8 3 3.3zM481.6 287.4l-5.3.8-5.7 2.1-5.7-2.1-5.7 1.2-5.8-.7-5.7-1.3-5.6.5-.3-4 5.9.9 5.7-3.1 5.7 4.1 5.7-3.2 5.8-1.2 5.7 3.8 4.2 1.7zM399.5 342.7l-5.7 1.7-6 3.2-6.6-2-6.1 2.2-6.4-.2-6.4-1-6.2 1.2-6.5 1.4.2-3.7 5.5-4.4 6.8 4.4 5.9-4.6 6.1-2.2 6.8 4.1 6.5 2 5.8-4.9 6.4-.4zM301.4 290.3l-4.8 1.5-4.8 2.2-5.4-.2-4.9 1.7-5.2.7-5 .3-.9-3.3 5-1.3 5.2-.5 4.7-2.8 5.5 1.3 4.8-2.8 5.9-1.7zM435.1 257.3l-4.4 2.2-4.4 3-5.2.8-4.6 2.5-4.9 1.5-4.9 1.3-1.5-3.1 4.6-2.2 5-1.4 4.2-3.5 5.6.3 4.2-3.6 5.5-2.6zM348.4 320.2l-4.9-.7-5.3-.1-4.7-2.5-5.2-.6-4.9-1.6-4.7-1.9.8-3.3 5 1 4.9 1.8 5.5-.5 4.4 3.6 5.5-.6 6 1.1zM407.4 235.8l-4.8 1.1-5 1.8-5.3-.6-5.1 1.4-5.2.2-5.1-.1-.6-3.3 5.1-.9 5.2-.1 5-2.4 5.4 1.7 4.9-2.5 6.1-1.1zM448.2 309.6l-5.9 1-6.3 2.1-6.3-2.2-6.3 1.3-6.3-.8-6.2-1.3-6.3.5-6.3.6-6-1-1.7-5.6 7.7 4 6.3-3.4 6.2-1.3 6.3 4 6.3 2.3 6.3-3.6 6.3.2 6.3-2.5 6.4 2.5zM380.7 286.6l-6.1-.6-6.9.6-5.6-4.3-6.6-.3-6-2.6-5.9-3.3-6.4-1.3-6.4-1.1-5.7-2.8v-6.2l6.4 6.7 7.4-2 6.7.3 4.9 6.3 5.5 4.4 7.4-2.3 6.2 2 7.1-1.1 5.6 4.7z"/></svg>