<svg xmlns="http://www.w3.org/2000/svg" viewBox="150 100 500 400" enable-background="new 150 100 500 400"><g><path fill="#827D7D" d="M646.3 257.4c2.9 11.7 4.4 24 3.5 36-.9 11.7.4 25.3-3.9 36.8-4 10.8-12.8 20.8-19.5 31.3-6.2 9.7-11.3 21.8-19.6 31-7.8 8.5-22.7 10.5-32.2 18.4-9 7.4-23.2 6.5-33.6 13.1-9.9 6.2-8.6 33.3-19.6 38.6-10.5 5.1-30.2-10.4-41.7-6.3-11.1 4-19.8 14.4-31.6 17.3-12 3-23.5 7.5-35.5 9.2-12.3 1.7-24.8-4.5-36.8-4.1-12.5.4-25.4 19.1-37.4 18.3-12.5-1-24.2-11.8-35.9-14.2-12.3-2.5-24.2-6.7-35.4-10.6-12-4.2-20.1-15.2-30.6-20.8-11.2-6.1-28.8-2.5-37.8-10.1-9.6-8.2-5-28.4-11.6-38.3-6.8-10.3-28.6-14-31.5-25.8-3-11.8 4.5-26.2 5.7-38.4 1.2-11.7 2.8-24.3 7.4-35.9 4.4-10.8 3-27 10-37.5 6.5-9.7 15.6-20.4 24.3-29.5 8.1-8.5 26.8-6.9 36.6-14.8 9.2-7.3 15.1-20.3 25.7-26.9 10.1-6.2 24.6-5.3 35.7-10.6 10.8-5.2 21.1-11.1 32.8-15.3 11.3-4 22.3-9.2 34.2-12.2 11.9-3 22.2-15.4 33.9-17 12.1-1.7 25.2-3.2 37-3.6 12.3-.4 25.3 2.1 37 3.1 12.3 1 23.7 10.4 35.1 12.8 12.1 2.5 20 16.2 31 20.1 11.7 4.3 30-7 40-1.3 10.8 6.2 22.4 13.6 31 21.3 9.2 8.2 4.3 28.2 10.5 38.1 6.6 10 19.9 16.1 22.8 27.8z"/><path fill="#F2F1ED" d="M644.8 251.4c3 11.8 4.2 24.1 3.2 36.2-1 11.7-1.1 24.8-5.5 36.5-4.1 10.9-12 21.1-18.7 31.6-6.3 9.7-12.3 21-20.8 30.3-7.9 8.5-20.9 12.6-30.7 20.4-9.1 7.3-22 9-32.5 15.6-10 6.2-12.7 26.4-23.9 31.7-10.7 5.1-27.6-3.9-39.2.2-11.1 4-20.9 12.1-32.8 15.1-12.1 3-23.9 6.8-35.9 8.5-12.4 1.8-24.9-2.1-37-1.6-12.6.5-25.3 13.1-37.4 12.2-12.6-.9-24.6-8.7-36.4-11-12.5-2.4-24.4-6.2-35.8-10.1-12.1-4.1-21.4-13.1-31.9-18.6-11.3-6.1-26.6-5.8-35.7-13.4-9.8-8.2-9.5-24.9-16.3-34.7-7-10.5-23.4-16.6-26.4-28.6-3-11.9 1.8-25.7 3.1-38 1.3-11.8 3.5-24.2 8.2-35.9 4.5-10.9 5.6-25.4 12.8-35.8 6.7-9.7 15.5-20 24.3-29.2 8.2-8.5 23.9-10.1 33.8-17.9 9.4-7.3 16.8-18.5 27.5-25 10.2-6.2 23.5-7.4 34.8-12.8 10.9-5.2 21.6-10.7 33.4-14.9 11.4-4.1 22.7-8.7 34.8-11.7 12-3 22.9-12.1 34.7-13.8 12.2-1.8 25-3.1 36.9-3.6 12.4-.5 25.2 1.3 37 2.2 12.4.9 24.1 7.7 35.6 10.1 12.2 2.5 21.5 12.7 32.6 16.6 11.8 4.2 27.8-1.9 38 3.8 11 6.2 22.1 13.4 31 21.1 9.4 8.2 8.8 24.8 15.2 34.6 6.5 10.4 17.1 18.1 20 29.9z"/><path fill="#B2B0A6" d="M535 239.4c3.3 11.7 5.8 24.4 3.4 35.9-2.4 11.4-7.9 23.3-15 33.2-6.7 9.3-18.1 15.3-28.2 22.1-9.5 6.3-19.5 13.1-31.4 16.4s-24 2.5-35.4 1.9c-12.2-.6-23.8-2.9-34.3-7.4-11.2-4.8-21.2-11.2-29.2-19.6-8-8.6-16.7-18.3-19.9-30-3.3-11.7-3.6-24.9-1.2-36.4 2.4-11.4 8.2-23 15.4-32.8 6.7-9.3 17-16.5 27.2-23.3 9.5-6.3 21.1-8.6 32.9-11.9 11.9-3.3 23.1-9.1 34.5-8.5 12.2.6 24.7 3.4 35.2 7.9 11.2 4.8 18.6 15.2 26.5 23.7 8 8.5 16.2 17.1 19.5 28.8z"/><path fill="#EFE054" d="M533.7 235.9c3.3 11.8 4.5 24.2 1.7 35.8-2.8 11.2-8.4 22.6-16.1 32.3-7 9-17.4 15.8-27.9 22.4-9.6 6.1-20.2 11.9-32.2 15.2-12.1 3.4-24.3 3.7-35.8 3.4-12.5-.3-24.4-2.4-35.2-6.4-11.7-4.4-22.1-10.6-30.5-18.8-8.6-8.5-16.3-18.5-19.5-30.3-3.3-11.8-3.3-24.7-.3-36.3 2.9-11.3 8.9-22.4 16.7-32.2 7.1-9 17.1-16.6 27.6-23.2 9.7-6.2 21.2-9.7 33.2-13 12.1-3.4 23.7-7.1 35.1-6.7 12.5.4 24.7 2.8 35.4 6.9 11.6 4.5 20.5 12.9 28.7 21.2 8.5 8.5 15.8 17.9 19.1 29.7z"/><path fill="#F2F1ED" d="M487 207c1.2 4.3-2.2 9-7.6 10.5-5.5 1.5-11-.8-12.2-5.1-1.2-4.3 2.5-8.9 7.9-10.4s10.8.7 11.9 5z"/></g></svg>